<mxfile host="app.diagrams.net" agent="Mozilla/5.0 (Macintosh; Intel Mac OS X 10_15_7) AppleWebKit/537.36 (KHTML, like Gecko) Chrome/128.0.0.0 Safari/537.36" version="24.7.16">
  <diagram name="ページ1" id="Cr0Gb6fsQJUtGHRy1cIA">
    <mxGraphModel dx="712" dy="615" grid="1" gridSize="10" guides="1" tooltips="1" connect="1" arrows="1" fold="1" page="1" pageScale="1" pageWidth="827" pageHeight="1169" math="0" shadow="0">
      <root>
        <mxCell id="0" />
        <mxCell id="1" parent="0" />
        <mxCell id="1cp1Eni4RLlDWVsxedHv-26" value="VPC" style="points=[[0,0],[0.25,0],[0.5,0],[0.75,0],[1,0],[1,0.25],[1,0.5],[1,0.75],[1,1],[0.75,1],[0.5,1],[0.25,1],[0,1],[0,0.75],[0,0.5],[0,0.25]];outlineConnect=0;gradientColor=none;html=1;whiteSpace=wrap;fontSize=12;fontStyle=0;container=1;pointerEvents=0;collapsible=0;recursiveResize=0;shape=mxgraph.aws4.group;grIcon=mxgraph.aws4.group_vpc2;strokeColor=#8C4FFF;fillColor=none;verticalAlign=top;align=left;spacingLeft=30;fontColor=#AAB7B8;dashed=0;" parent="1" vertex="1">
          <mxGeometry x="360" y="120" width="600" height="480" as="geometry" />
        </mxCell>
        <mxCell id="1cp1Eni4RLlDWVsxedHv-25" value="Availability Zone(ap-northeast-1a)" style="fillColor=none;strokeColor=#147EBA;dashed=1;verticalAlign=top;fontStyle=0;fontColor=#147EBA;whiteSpace=wrap;html=1;align=left;" parent="1cp1Eni4RLlDWVsxedHv-26" vertex="1">
          <mxGeometry x="120" y="40" width="400" height="360" as="geometry" />
        </mxCell>
        <mxCell id="1cp1Eni4RLlDWVsxedHv-24" value="" style="group" parent="1cp1Eni4RLlDWVsxedHv-26" vertex="1" connectable="0">
          <mxGeometry x="-74" y="191" width="150" height="108" as="geometry" />
        </mxCell>
        <mxCell id="1cp1Eni4RLlDWVsxedHv-15" value="" style="sketch=0;outlineConnect=0;fontColor=#232F3E;gradientColor=none;fillColor=#8C4FFF;strokeColor=none;dashed=0;verticalLabelPosition=bottom;verticalAlign=top;align=center;html=1;fontSize=12;fontStyle=0;aspect=fixed;pointerEvents=1;shape=mxgraph.aws4.internet_gateway;" parent="1cp1Eni4RLlDWVsxedHv-24" vertex="1">
          <mxGeometry x="36" width="78" height="78" as="geometry" />
        </mxCell>
        <mxCell id="1cp1Eni4RLlDWVsxedHv-23" value="&lt;font style=&quot;font-size: 18px;&quot;&gt;Internet Gateway&lt;/font&gt;" style="text;strokeColor=none;align=center;fillColor=none;html=1;verticalAlign=middle;whiteSpace=wrap;rounded=0;" parent="1cp1Eni4RLlDWVsxedHv-24" vertex="1">
          <mxGeometry y="78" width="150" height="30" as="geometry" />
        </mxCell>
        <mxCell id="1cp1Eni4RLlDWVsxedHv-35" value="" style="edgeStyle=orthogonalEdgeStyle;html=1;endArrow=block;elbow=vertical;startArrow=none;endFill=1;strokeColor=#545B64;rounded=0;" parent="1cp1Eni4RLlDWVsxedHv-26" target="1cp1Eni4RLlDWVsxedHv-9" edge="1">
          <mxGeometry width="100" relative="1" as="geometry">
            <mxPoint x="40" y="230" as="sourcePoint" />
            <mxPoint x="208" y="230" as="targetPoint" />
          </mxGeometry>
        </mxCell>
        <mxCell id="1cp1Eni4RLlDWVsxedHv-16" value="Public subnet" style="points=[[0,0],[0.25,0],[0.5,0],[0.75,0],[1,0],[1,0.25],[1,0.5],[1,0.75],[1,1],[0.75,1],[0.5,1],[0.25,1],[0,1],[0,0.75],[0,0.5],[0,0.25]];outlineConnect=0;gradientColor=none;html=1;whiteSpace=wrap;fontSize=12;fontStyle=0;container=1;pointerEvents=0;collapsible=0;recursiveResize=0;shape=mxgraph.aws4.group;grIcon=mxgraph.aws4.group_security_group;grStroke=0;strokeColor=#7AA116;fillColor=#F2F6E8;verticalAlign=top;align=left;spacingLeft=30;fontColor=#248814;dashed=0;" parent="1" vertex="1">
          <mxGeometry x="560" y="240" width="240" height="240" as="geometry" />
        </mxCell>
        <mxCell id="1cp1Eni4RLlDWVsxedHv-10" value="Security Group" style="fontStyle=0;verticalAlign=top;align=center;spacingTop=-2;fillColor=none;rounded=0;whiteSpace=wrap;html=1;strokeColor=#FF0000;strokeWidth=2;dashed=1;container=1;collapsible=0;expand=0;recursiveResize=0;" parent="1" vertex="1">
          <mxGeometry x="600" y="280" width="160" height="160" as="geometry" />
        </mxCell>
        <mxCell id="1cp1Eni4RLlDWVsxedHv-18" value="" style="group" parent="1cp1Eni4RLlDWVsxedHv-10" vertex="1" connectable="0">
          <mxGeometry y="31" width="160" height="120" as="geometry" />
        </mxCell>
        <mxCell id="1cp1Eni4RLlDWVsxedHv-11" value="&lt;font style=&quot;font-size: 18px;&quot;&gt;EC2&lt;/font&gt;&lt;div&gt;(apache + wp + MySQL)&lt;/div&gt;" style="text;strokeColor=none;align=center;fillColor=none;html=1;verticalAlign=middle;whiteSpace=wrap;rounded=0;" parent="1cp1Eni4RLlDWVsxedHv-18" vertex="1">
          <mxGeometry y="80" width="160" height="40" as="geometry" />
        </mxCell>
        <mxCell id="1cp1Eni4RLlDWVsxedHv-9" value="" style="sketch=0;points=[[0,0,0],[0.25,0,0],[0.5,0,0],[0.75,0,0],[1,0,0],[0,1,0],[0.25,1,0],[0.5,1,0],[0.75,1,0],[1,1,0],[0,0.25,0],[0,0.5,0],[0,0.75,0],[1,0.25,0],[1,0.5,0],[1,0.75,0]];outlineConnect=0;fontColor=#232F3E;fillColor=#ED7100;strokeColor=#ffffff;dashed=0;verticalLabelPosition=bottom;verticalAlign=top;align=center;html=1;fontSize=12;fontStyle=0;aspect=fixed;shape=mxgraph.aws4.resourceIcon;resIcon=mxgraph.aws4.ec2;" parent="1cp1Eni4RLlDWVsxedHv-18" vertex="1">
          <mxGeometry x="40" width="80" height="80" as="geometry" />
        </mxCell>
        <mxCell id="1cp1Eni4RLlDWVsxedHv-27" value="" style="sketch=0;outlineConnect=0;fontColor=#232F3E;gradientColor=none;fillColor=#232F3D;strokeColor=none;dashed=0;verticalLabelPosition=bottom;verticalAlign=top;align=center;html=1;fontSize=12;fontStyle=0;aspect=fixed;pointerEvents=1;shape=mxgraph.aws4.user;" parent="1" vertex="1">
          <mxGeometry x="80" y="311" width="78" height="78" as="geometry" />
        </mxCell>
        <mxCell id="1cp1Eni4RLlDWVsxedHv-28" value="" style="edgeStyle=orthogonalEdgeStyle;html=1;endArrow=block;elbow=vertical;startArrow=none;endFill=1;strokeColor=#545B64;rounded=0;" parent="1" source="1cp1Eni4RLlDWVsxedHv-27" target="1cp1Eni4RLlDWVsxedHv-15" edge="1">
          <mxGeometry width="100" relative="1" as="geometry">
            <mxPoint x="158" y="348.84" as="sourcePoint" />
            <mxPoint x="320" y="350" as="targetPoint" />
          </mxGeometry>
        </mxCell>
        <mxCell id="1cp1Eni4RLlDWVsxedHv-30" value="&lt;font style=&quot;font-size: 14px;&quot;&gt;ssh&lt;/font&gt;" style="text;strokeColor=none;align=center;fillColor=none;html=1;verticalAlign=middle;whiteSpace=wrap;rounded=0;" parent="1" vertex="1">
          <mxGeometry x="158" y="320" width="60" height="30" as="geometry" />
        </mxCell>
        <mxCell id="1cp1Eni4RLlDWVsxedHv-31" value="" style="fontColor=#0066CC;verticalAlign=top;verticalLabelPosition=bottom;labelPosition=center;align=center;html=1;outlineConnect=0;fillColor=#CCCCCC;strokeColor=#6881B3;gradientColor=none;gradientDirection=north;strokeWidth=2;shape=mxgraph.networks.pc;" parent="1" vertex="1">
          <mxGeometry x="58" y="445" width="100" height="70" as="geometry" />
        </mxCell>
        <mxCell id="1cp1Eni4RLlDWVsxedHv-32" value="" style="edgeStyle=orthogonalEdgeStyle;html=1;endArrow=block;elbow=vertical;startArrow=none;endFill=1;strokeColor=#545B64;rounded=0;exitX=1;exitY=0.5;exitDx=0;exitDy=0;exitPerimeter=0;" parent="1" source="1cp1Eni4RLlDWVsxedHv-31" target="1cp1Eni4RLlDWVsxedHv-15" edge="1">
          <mxGeometry width="100" relative="1" as="geometry">
            <mxPoint x="170" y="480" as="sourcePoint" />
            <mxPoint x="320" y="350" as="targetPoint" />
            <Array as="points">
              <mxPoint x="158" y="480" />
              <mxPoint x="280" y="480" />
              <mxPoint x="280" y="350" />
            </Array>
          </mxGeometry>
        </mxCell>
        <mxCell id="1cp1Eni4RLlDWVsxedHv-33" value="&lt;font style=&quot;font-size: 14px;&quot;&gt;http&lt;/font&gt;" style="text;strokeColor=none;align=center;fillColor=none;html=1;verticalAlign=middle;whiteSpace=wrap;rounded=0;" parent="1" vertex="1">
          <mxGeometry x="220" y="450" width="60" height="30" as="geometry" />
        </mxCell>
      </root>
    </mxGraphModel>
  </diagram>
</mxfile>
